<svg xmlns="http://www.w3.org/2000/svg" version="1.1" xmlns:xlink="http://www.w3.org/1999/xlink" xmlns:svgjs="http://svgjs.com/svgjs" width="2160" height="2160" preserveAspectRatio="none" viewBox="0 0 2160 2160"><g mask="url(&quot;#SvgjsMask1034&quot;)" fill="none"><rect width="2160" height="2160" x="0" y="0" fill="url(#SvgjsLinearGradient1035)"></rect><path d="M2160 0L2003.02 0L2160 195.11z" fill="rgba(255, 255, 255, .1)"></path><path d="M2003.02 0L2160 195.11L2160 1216.94L996.84 0z" fill="rgba(255, 255, 255, .075)"></path><path d="M996.8400000000001 0L2160 1216.94L2160 1660.94L577.0300000000002 0z" fill="rgba(255, 255, 255, .05)"></path><path d="M577.0300000000002 0L2160 1660.94L2160 1810L274.3600000000002 0z" fill="rgba(255, 255, 255, .025)"></path><path d="M0 2160L524.41 2160L0 1826.41z" fill="rgba(0, 0, 0, .1)"></path><path d="M0 1826.41L524.41 2160L738.9 2160L0 1786.44z" fill="rgba(0, 0, 0, .075)"></path><path d="M0 1786.44L738.9 2160L789.27 2160L0 1583.58z" fill="rgba(0, 0, 0, .05)"></path><path d="M0 1583.58L789.27 2160L1674.1 2160L0 817.6299999999999z" fill="rgba(0, 0, 0, .025)"></path></g><defs><mask id="SvgjsMask1034"><rect width="2160" height="2160" fill="#ffffff"></rect></mask><linearGradient x1="0%" y1="0%" x2="100%" y2="100%" gradientUnits="userSpaceOnUse" id="SvgjsLinearGradient1035"><stop stop-color="#0e2a47" offset="0"></stop><stop stop-color="rgba(49, 46, 129, 1)" offset="1"></stop></linearGradient></defs></svg>